<svg width="128" height="128" viewBox="0 0 128 128" fill="none" xmlns="http://www.w3.org/2000/svg">
  <rect width="128" height="128" rx="16" fill="#0D96EA"/>
  <path d="M39.5 94V34H64.5C70.1667 34 75 35.1667 79 37.5C83 39.8333 86 43 88 47C90 51 91 55.5 91 60.5C91 65.5 90 69.8333 88 73.5C86 77.1667 83 80 79 82C75 84 70.1667 85 64.5 85H51V94H39.5ZM51 74.5H63.5C67.5 74.5 70.5 73.3333 72.5 71C74.5 68.6667 75.5 65.1667 75.5 60.5C75.5 55.8333 74.5 52.3333 72.5 50C70.5 47.6667 67.5 46.5 63.5 46.5H51V74.5Z" fill="white"/>
  <path d="M88.5 94L88.5 34" stroke="white" stroke-width="4" stroke-linecap="round"/>
</svg>